M48
;DRILL file {KiCad 4.0.5+dfsg1-4} date Mon Jul 31 15:13:45 2017
;FORMAT={-:-/ absolute / inch / decimal}
FMAT,2
INCH,TZ
T1C0.020
T2C0.030
T3C0.031
T4C0.039
T5C0.040
T6C0.043
T7C0.051
T8C0.118
%
G90
G05
M72
T1
X3.75Y-3.5
X3.85Y-2.6
X3.85Y-2.95
X3.95Y-2.6
X3.95Y-2.95
X4.15Y-2.6
X4.15Y-3.2
X4.35Y-2.7
X4.35Y-4.25
X4.45Y-3.65
X4.6Y-3.1
X4.75Y-3.55
X4.925Y-3.4
X4.95Y-2.8
X4.95Y-2.9
X5.075Y-2.8
X5.15Y-2.9
X5.2Y-4.25
X5.225Y-3.55
X5.3Y-3.3
X5.4Y-2.5
X5.6Y-3.2
T2
X3.75Y-2.6
X3.75Y-2.7
X3.75Y-2.8
X3.75Y-2.9
X3.75Y-3.
X3.75Y-3.1
X3.75Y-3.2
X3.75Y-3.3
X3.75Y-3.65
X3.75Y-3.75
X3.75Y-3.85
X3.75Y-3.95
X3.75Y-4.05
X3.75Y-4.15
X3.75Y-4.25
X3.75Y-4.35
X4.25Y-2.6
X4.25Y-2.7
X4.25Y-2.8
X4.25Y-2.9
X4.25Y-3.
X4.25Y-3.1
X4.25Y-3.2
X4.25Y-3.3
X4.25Y-3.65
X4.25Y-3.75
X4.25Y-3.85
X4.25Y-3.95
X4.25Y-4.05
X4.25Y-4.15
X4.25Y-4.25
X4.25Y-4.35
X4.9Y-2.6
X4.9Y-2.7
X4.9Y-2.8
X4.9Y-2.9
X4.9Y-3.
X4.9Y-3.1
X4.9Y-3.2
X4.9Y-3.3
X4.9Y-3.65
X4.9Y-3.75
X4.9Y-3.85
X4.9Y-3.95
X4.9Y-4.05
X4.9Y-4.15
X4.9Y-4.25
X4.9Y-4.35
X5.4Y-2.6
X5.4Y-2.7
X5.4Y-2.8
X5.4Y-2.9
X5.4Y-3.
X5.4Y-3.1
X5.4Y-3.2
X5.4Y-3.3
X5.4Y-3.65
X5.4Y-3.75
X5.4Y-3.85
X5.4Y-3.95
X5.4Y-4.05
X5.4Y-4.15
X5.4Y-4.25
X5.4Y-4.35
T3
X5.8531Y-3.3
X6.05Y-3.3
T4
X5.9Y-3.75
X6.Y-3.75
X6.1Y-3.75
T5
X3.55Y-3.2
X3.55Y-3.3
X3.55Y-4.25
X3.55Y-4.35
X4.45Y-2.8
X4.45Y-2.9
X4.45Y-3.
X4.45Y-3.1
X4.45Y-3.85
X4.45Y-3.95
X4.45Y-4.05
X4.45Y-4.15
X4.7Y-3.2
X4.7Y-3.3
X4.7Y-4.25
X4.7Y-4.35
X4.9Y-2.4
X5.Y-2.4
X5.1Y-2.4
X5.2Y-2.4
X5.6Y-2.8
X5.6Y-2.9
X5.6Y-3.
X5.6Y-3.1
X5.6Y-3.85
X5.6Y-3.95
X5.6Y-4.05
X5.6Y-4.15
T6
X5.9Y-4.25
X6.Y-4.25
T7
X6.Y-2.6531
X6.Y-2.85
T8
X3.6Y-2.3
X3.6Y-4.6
X6.Y-2.3
X6.Y-4.6
T0
M30
